<svg width="230" height="18" viewBox="0 0 230 18" fill="none" xmlns="http://www.w3.org/2000/svg">
<path d="M51.7031 2.54712V7.47165H45.9389V2.54712H42.7948V15.4528H45.9389V10.2735H51.7031V15.4528H54.8472V2.54712H54.6725H51.7031Z" fill="white"/>
<path d="M66.4629 2.54712L63.1441 7.64146L59.8253 2.54712H56.1135L61.572 10.9952V15.4528H64.7161V10.9952L70.1747 2.54712H69.869H66.4629Z" fill="white"/>
<path d="M80.3493 2.54712V12.0141C80.3493 12.3537 80.0873 12.6509 79.6943 12.6509H74.6288V2.54712H71.4847V15.4528H80.786C81.6157 15.4528 82.2708 15.1981 82.7948 14.7311C83.2751 14.2641 83.5371 13.6273 83.5371 12.8207V2.54712H83.3624H80.3493Z" fill="white"/>
<path d="M95.8079 2.54712H86.4629V15.4528H89.607V5.34901H94.6725C95.0655 5.34901 95.3275 5.64617 95.3275 5.9858V15.4528H98.4716V5.17919C98.4716 4.37259 98.2096 3.7358 97.7293 3.26882C97.2926 2.75938 96.6375 2.54712 95.8079 2.54712Z" fill="white"/>
<path d="M110.786 2.54712H101.441V15.4528H110.786C111.616 15.4528 112.271 15.1981 112.751 14.7311C113.231 14.2641 113.493 13.6273 113.493 12.8207V5.17919C113.493 4.37259 113.231 3.7358 112.751 3.26882C112.271 2.75938 111.616 2.54712 110.786 2.54712ZM110.349 5.9858V11.9716C110.349 12.3113 110.087 12.6509 109.694 12.6509H104.629V5.34901H109.694C110.044 5.34901 110.349 5.60372 110.349 5.9858Z" fill="white"/>
<path d="M118.996 2.54712C118.166 2.54712 117.511 2.80184 117.031 3.26882C116.55 3.7358 116.288 4.37259 116.288 5.17919V15.4528H119.432V11.4622H125.197V15.4528H128.341V2.54712H118.996ZM125.197 5.34901V8.66032H119.432V5.9858C119.432 5.64617 119.694 5.34901 120.087 5.34901H125.197Z" fill="white"/>
<path d="M134.585 2.54712H131.441V15.4528H134.585V2.54712Z" fill="white"/>
<path d="M18.0786 18C28.0786 18 36.1572 13.967 36.1572 9C36.1572 4.03302 28.0349 0 18.0786 0C8.0786 0 0 4.03302 0 9C0 13.967 8.0786 18 18.0786 18ZM21.4847 13.5849C21.179 14.2642 20.655 15.7075 19.476 16.3019C19.1266 16.4717 18.69 16.5566 18.2533 16.5566C18.1659 16.5566 18.0786 16.5566 18.0786 16.5566C14.7598 16.5566 11.6594 16.0896 9.0393 15.3255C8.99563 15.3255 8.95196 15.283 8.95196 15.283C8.73362 15.1981 8.60262 15.1132 8.60262 14.9858C8.60262 14.8585 8.64629 14.7736 8.73362 14.6887C8.77729 14.6462 8.82096 14.6038 8.9083 14.5613C9.51965 14.0943 11.31 12.8208 14.7162 11.5472C15.8952 11.1226 17.4236 10.5708 18.952 10.2311C19.869 10.0189 23.2751 9.50943 21.4847 13.5849ZM30.6114 4.5C30.655 4.37264 30.7424 4.28774 30.917 4.28774C31.0044 4.28774 31.1354 4.28774 31.31 4.41509C33.4498 5.68868 34.6725 7.25943 34.6725 9C34.6725 12.0991 30.5677 14.7736 24.7162 15.9198C24.3231 16.0047 24.1048 16.0047 24.0175 15.8774C23.9738 15.8349 23.9301 15.7075 24.0175 15.5802C24.0611 15.5377 24.1048 15.4528 24.1921 15.3679C27.3799 11.717 29.8253 6.32547 30.524 4.75472C30.524 4.66981 30.5677 4.58491 30.6114 4.5ZM14.7162 4.41509C15.0218 3.73585 15.5458 2.29245 16.7249 1.69811C17.0742 1.5283 17.5109 1.4434 17.9476 1.4434C18.0349 1.4434 18.1223 1.4434 18.1223 1.4434C21.441 1.4434 24.5852 1.91038 27.1616 2.67453L27.2489 2.71698C27.5109 2.80189 27.5983 2.88679 27.5983 3.0566C27.5983 3.18396 27.5546 3.26887 27.4672 3.35377C27.4236 3.39623 27.3799 3.43868 27.2926 3.48113C26.6812 3.99057 24.8908 5.2217 21.4847 6.49528C20.3057 6.91981 18.7773 7.4717 17.2489 7.81132C16.3319 7.93868 12.9258 8.44811 14.7162 4.41509ZM11.441 2.08019C11.8341 1.99528 12.0524 1.99528 12.1397 2.12264C12.2271 2.12264 12.2271 2.25 12.1834 2.37736C12.1397 2.46226 12.0961 2.50472 12.0087 2.58962C8.82096 6.24057 6.37555 11.6745 5.67686 13.2028C5.63319 13.3302 5.58952 13.4151 5.54585 13.5C5.50218 13.6274 5.41485 13.7123 5.24017 13.7123C5.15284 13.7123 5.02183 13.7123 4.84716 13.5849C2.70742 12.3113 1.48472 10.7406 1.48472 9C1.48472 5.90094 5.58952 3.22642 11.441 2.08019Z" fill="white"/>
<path d="M142.358 2.54712H144.76L149.476 13.2028L154.192 2.54712H156.594V15.4528H154.804V5.2641L150.306 15.4952H148.646L144.148 5.2641V15.4952H142.358V2.54712Z" fill="white"/>
<path d="M159.083 9.00006C159.083 5.22175 161.878 2.33496 165.721 2.33496C169.607 2.33496 172.358 5.26421 172.358 9.00006C172.358 12.7359 169.607 15.7076 165.721 15.7076C161.878 15.7076 159.083 12.7784 159.083 9.00006ZM170.524 9.00006C170.524 6.15572 168.646 3.99062 165.721 3.99062C162.795 3.99062 160.917 6.15572 160.917 9.00006C160.917 11.8444 162.795 14.0095 165.721 14.0095C168.646 14.0519 170.524 11.8444 170.524 9.00006Z" fill="white"/>
<path d="M174.891 2.54712H180C182.751 2.54712 184.279 3.8207 184.279 5.94335C184.279 7.04712 183.712 8.02353 182.664 8.57542C184.192 8.99995 185.327 9.97636 185.327 11.8018C185.327 14.0094 183.712 15.4103 180.699 15.4103H174.934V2.54712H174.891ZM179.782 8.10844C181.616 8.10844 182.402 7.34429 182.402 6.11316C182.402 4.83957 181.616 4.11787 179.782 4.11787H176.681V8.15089H179.782V8.10844ZM180.611 13.9245C182.576 13.9245 183.493 13.1179 183.493 11.7594C183.493 10.4009 182.576 9.59429 180.611 9.59429H176.725V13.9245H180.611Z" fill="white"/>
<path d="M187.729 2.54712H189.52V15.4528H187.729V2.54712Z" fill="white"/>
<path d="M192.882 2.54712H194.672V13.882H201.485V15.4528H192.838V2.54712H192.882Z" fill="white"/>
<path d="M203.581 2.54712H205.371V15.4528H203.581V2.54712Z" fill="white"/>
<path d="M211.572 4.11787H207.38V2.54712H217.555V4.11787H213.362V15.4528H211.572V4.11787Z" fill="white"/>
<path d="M223.144 9.93391L218.122 2.58957V2.54712H220.218L224.061 8.19334L227.904 2.54712H230V2.58957L224.978 9.93391V15.4528H223.144V9.93391Z" fill="white"/>
</svg>
